<?xml version="1.0" encoding="UTF-8" standalone="no"?>
<!DOCTYPE svg PUBLIC "-//W3C//DTD SVG 1.1//EN" "http://www.w3.org/Graphics/SVG/1.1/DTD/svg11.dtd">
<svg version="1.1" xmlns="http://www.w3.org/2000/svg" xmlns:xlink="http://www.w3.org/1999/xlink" preserveAspectRatio="xMidYMid meet" viewBox="0 0 630 430"><defs><path d="M303.01 263.22C303.01 263.22 303.01 263.22 303.01 263.22C290.32 285.29 283.27 297.56 281.86 300.01C281.86 300.01 281.86 300.01 281.86 300.01C234.57 283.56 208.29 274.43 203.04 272.6C203.04 272.6 203.04 272.6 203.04 272.6C215.72 250.53 222.77 238.26 224.18 235.81C224.18 235.81 224.18 235.81 224.18 235.81C271.48 252.26 297.75 261.39 303.01 263.22Z" id="UieHgmv8Xk"></path><path d="M219.53 13.48C218.83 14.71 215.31 20.84 208.96 31.88C92.68 234.23 28.08 346.64 15.16 369.12C13.21 372.51 15.17 376.48 19.52 378C23.87 379.51 28.98 378 30.93 374.6C43.85 352.12 108.45 239.71 224.73 37.36C231.07 26.32 234.59 20.19 235.3 18.97C237.25 15.58 235.29 11.61 230.94 10.09C226.59 8.58 221.48 10.09 219.53 13.48Z" id="cfvpVv6gb2"></path><path d="M398.15 97.66C398.15 97.66 398.15 97.66 398.15 97.66C336.83 204.35 302.77 263.63 295.96 275.48C295.96 275.48 295.96 275.48 295.96 275.48C191.91 239.3 134.1 219.2 122.54 215.18C122.54 215.18 122.54 215.18 122.54 215.18C183.85 108.49 217.92 49.22 224.73 37.36C224.73 37.36 224.73 37.36 224.73 37.36C328.78 73.54 386.58 93.64 398.15 97.66Z" id="tqRjY1nUKK"></path><path d="M295.96 275.48C267.58 265.61 251.82 260.13 248.66 259.04C231.25 252.98 210.82 259.05 203.04 272.6C195.25 286.14 203.06 302.04 220.47 308.09C222.58 308.82 233.09 312.48 252 319.05L512.13 409.51L481.8 281.25L624.89 213.29L380.53 128.32L295.96 275.48Z" id="k7zTm1E9r9"></path><path d="M220.47 308.09C222.58 308.82 233.09 312.48 252 319.05L267.77 324.54L295.96 275.48C267.58 265.61 251.82 260.13 248.66 259.04C231.25 252.98 210.82 259.05 203.04 272.6C195.25 286.14 203.06 302.04 220.47 308.09Z" id="QjhxHZ2ayK"></path></defs><g visibility="inherit"><g visibility="inherit"><path visibility="inherit"></path><g visibility="inherit"><use xlink:href="#UieHgmv8Xk" opacity="1" fill="#871b1b" fill-opacity="1"></use><g><use xlink:href="#UieHgmv8Xk" opacity="1" fill-opacity="0" stroke="#000000" stroke-width="1" stroke-opacity="0"></use></g></g><g visibility="inherit"><use xlink:href="#cfvpVv6gb2" opacity="1" fill="#424a60" fill-opacity="1"></use><g><use xlink:href="#cfvpVv6gb2" opacity="1" fill-opacity="0" stroke="#000000" stroke-width="1" stroke-opacity="0"></use></g></g><g visibility="inherit"><use xlink:href="#tqRjY1nUKK" opacity="1" fill="#dd352e" fill-opacity="1"></use><g><use xlink:href="#tqRjY1nUKK" opacity="1" fill-opacity="0" stroke="#000000" stroke-width="1" stroke-opacity="0"></use></g></g><g visibility="inherit"><use xlink:href="#k7zTm1E9r9" opacity="1" fill="#c03a2b" fill-opacity="1"></use><g><use xlink:href="#k7zTm1E9r9" opacity="1" fill-opacity="0" stroke="#000000" stroke-width="1" stroke-opacity="0"></use></g></g><g visibility="inherit"><use xlink:href="#QjhxHZ2ayK" opacity="1" fill="#b02721" fill-opacity="1"></use><g><use xlink:href="#QjhxHZ2ayK" opacity="1" fill-opacity="0" stroke="#000000" stroke-width="1" stroke-opacity="0"></use></g></g></g></g></svg>