<?xml version="1.0" encoding="UTF-8" standalone="no"?>
<!DOCTYPE svg PUBLIC "-//W3C//DTD SVG 1.1//EN" "http://www.w3.org/Graphics/SVG/1.1/DTD/svg11.dtd">
<svg version="1.1" xmlns="http://www.w3.org/2000/svg" xmlns:xlink="http://www.w3.org/1999/xlink" preserveAspectRatio="xMidYMid meet" viewBox="0 0 673 400"><defs><path d="M435.91 266.75C434.54 264.63 468.51 258.85 469.49 253.52C470.47 248.07 465.28 280.53 468.61 278.53C470.28 277.53 480.75 254.85 491.52 256.41C516.98 260.19 514.33 299.1 499.55 309.33C491.03 315.22 477.33 299.88 480.07 286.2C482.02 276.42 490.44 277.42 494.85 278.98C500.82 280.98 492.21 265.08 481.34 272.75C476.54 276.09 469.49 281.64 469.88 309.33C470.47 347.13 474.58 385.82 478.7 392.93C478.7 392.93 448.54 392.71 447.66 392.82C447.66 392.82 445.31 305.44 447.46 283.98C447.66 280.75 438.07 275.64 436.01 276.2C435.03 276.42 437.38 269.19 435.91 266.75Z" id="ZqBRGo4HkU"></path><path d="M467.83 182.14C477.23 186.03 485.35 184.25 490.05 168.69C490.44 165.46 500.33 148.01 477.23 128.22C469.69 121.77 447.56 105.98 422.4 122.55C403.11 135.22 382.94 151.23 368.55 222.5C364.53 221.83 344.39 218.5 308.14 212.49L303.05 239.73C341.71 239 363.18 238.59 367.48 238.51C362.19 289.65 361.5 342.57 363.27 392.82C367.17 392.82 398.42 392.82 402.33 392.82C390.97 354.35 388.72 295.65 391.27 234.51C395.32 234.88 415.59 236.77 452.07 240.18L457.35 220.5C419.05 221.5 397.77 222.05 393.52 222.16C399 192.7 405.17 165.58 413.88 146.79C424.46 127.89 436.79 114.43 454.42 120.1C471.55 124.66 478.01 147.57 472.63 153.12C465.28 160.57 457.35 174.91 467.83 182.14Z" id="f6Hf7JOAmD"></path><path d="M303.05 260.41C303.05 251.96 281.51 264.3 280.54 253.63C279.85 245.73 293.95 107.1 289.54 100.09C285.23 93.31 269.28 72.19 263.99 91.53C250.48 141.12 99.51 404.27 91.19 370.36C95.1 388.93 104.31 394.93 113.71 388.37C120.09 380.69 171.16 319.23 177.54 311.55C184.39 303.88 213.37 292.43 248.91 287.65C248.72 334.68 262.52 365.69 283.47 388.26C292.97 385.26 298.84 376.92 302.96 366.14C288.96 338.46 279.65 309.77 280.54 279.2C292.58 269.19 303.05 268.86 303.05 260.41ZM197.22 267.3C193.2 260.41 248.62 180.81 255.96 168.24C256.16 167.35 256.35 166.8 256.55 166.69C256.94 166.35 256.74 166.91 255.96 168.24C253.12 180.14 247.35 256.07 250.77 266.97C252.34 272.08 201.13 274.08 197.22 267.3Z" id="hjx7E3URnA"></path><path d="M229.53 85C236.38 80.34 239.22 87.34 229.53 96.34C219.83 105.35 130.84 119.36 120.17 125.7C104.4 135.03 60.54 377.18 58.49 383.18C54.47 395.3 23.63 391.74 21.87 383.18C20.99 378.73 94.52 145.49 82.28 133.92C74.15 126.14 19.62 145.26 10.71 142.93C1.8 140.48 1.51 106.91 9.83 111.47C16.78 115.36 219.15 92.01 229.53 85Z" id="aagnFk0Ejn"></path><path d="M668.53 321.11C668.24 319.22 664.62 301.32 654.14 295.87C645.04 291.21 616.94 285.09 599.22 298.65C581.5 312.33 589.03 371.7 589.03 371.81C589.03 371.81 589.23 384.26 610.67 391.93C632.11 399.6 658.55 395.38 662.07 386.6C665.4 378.37 658.65 375.14 656.2 375.48C652.87 375.92 637.11 379.92 635.64 380.15C634.46 380.37 617.23 383.15 619.19 371.14C619.09 371.36 657.67 373.37 664.32 366.69C671.18 359.8 668.93 324.45 668.53 321.11ZM622.42 307.44C624.08 305.99 635.15 298.21 638.67 316.67C642.2 335.12 636.13 357.24 636.13 357.24C634.85 357.17 628.45 356.8 616.94 356.13C619.48 324.63 621.31 308.4 622.42 307.44Z" id="nk5gsO85wm"></path><path d="M584.53 321.11C584.24 319.22 580.62 301.32 570.14 295.87C561.03 291.21 532.94 285.09 515.21 298.65C497.49 312.33 505.03 371.7 505.03 371.81C505.03 371.81 505.23 384.26 526.67 391.93C548.11 399.6 574.54 395.38 578.07 386.6C581.4 378.37 574.64 375.14 572.2 375.48C568.87 375.92 553.1 379.92 551.64 380.15C550.46 380.37 533.23 383.15 535.19 371.14C535.19 371.36 573.76 373.37 580.32 366.69C587.17 359.8 584.92 324.45 584.53 321.11ZM538.52 307.44C540.18 305.99 551.24 298.21 554.77 316.67C558.29 335.12 552.22 357.24 552.22 357.24C550.94 357.17 544.55 356.8 533.03 356.13C535.58 324.63 537.41 308.4 538.52 307.44Z" id="K5BoP8Sxgr"></path><path d="M515.41 134C520.79 132.56 531.07 129.22 537.93 124.77C544.78 120.22 547.91 114.43 546.84 104.54C545.76 94.64 535.19 88.09 529.02 90.86C522.85 93.64 518.15 101.98 516.58 107.32C515.12 112.66 514.92 119.77 512.96 125.22C511.1 130.55 503.37 140.45 503.37 140.45C505.78 139.16 510.03 135.45 515.41 134Z" id="T8a3oOtXAh"></path><path d="M486.82 104.54C484.37 102.2 479.87 97.42 477.42 93.09C474.98 88.75 474.68 84.86 477.52 80.08C480.36 75.3 487.31 75.08 489.76 78.41C492.3 81.75 492.79 87.31 492.3 90.53C491.81 93.76 490.25 97.42 490.05 100.76C489.76 104.09 491.52 111.43 491.52 111.43C490.58 110.05 489.27 106.87 486.82 104.54Z" id="dsRfkmdNNW"></path></defs><g visibility="inherit"><g visibility="inherit"><g><use xlink:href="#ZqBRGo4HkU" opacity="1" fill="#fff6e5" fill-opacity="1"></use><g><use xlink:href="#ZqBRGo4HkU" opacity="1" fill-opacity="0" stroke="#000000" stroke-width="1" stroke-opacity="1"></use></g></g><g><use xlink:href="#f6Hf7JOAmD" opacity="1" fill="#fff6e5" fill-opacity="1"></use><g><use xlink:href="#f6Hf7JOAmD" opacity="1" fill-opacity="0" stroke="#000000" stroke-width="1" stroke-opacity="1"></use></g></g><g><use xlink:href="#hjx7E3URnA" opacity="1" fill="#fff6e5" fill-opacity="1"></use><g><use xlink:href="#hjx7E3URnA" opacity="1" fill-opacity="0" stroke="#000000" stroke-width="1" stroke-opacity="1"></use></g></g><g><use xlink:href="#aagnFk0Ejn" opacity="1" fill="#fff6e5" fill-opacity="1"></use><g><use xlink:href="#aagnFk0Ejn" opacity="1" fill-opacity="0" stroke="#000000" stroke-width="1" stroke-opacity="1"></use></g></g><g><use xlink:href="#nk5gsO85wm" opacity="1" fill="#fff6e5" fill-opacity="1"></use><g><use xlink:href="#nk5gsO85wm" opacity="1" fill-opacity="0" stroke="#000000" stroke-width="1" stroke-opacity="1"></use></g></g><g><use xlink:href="#K5BoP8Sxgr" opacity="1" fill="#fff6e5" fill-opacity="1"></use><g><use xlink:href="#K5BoP8Sxgr" opacity="1" fill-opacity="0" stroke="#000000" stroke-width="1" stroke-opacity="1"></use></g></g><g><use xlink:href="#T8a3oOtXAh" opacity="1" fill="#fff6e5" fill-opacity="1"></use><g><use xlink:href="#T8a3oOtXAh" opacity="1" fill-opacity="0" stroke="#000000" stroke-width="1" stroke-opacity="1"></use></g></g><g><use xlink:href="#dsRfkmdNNW" opacity="1" fill="#fff6e5" fill-opacity="1"></use><g><use xlink:href="#dsRfkmdNNW" opacity="1" fill-opacity="0" stroke="#000000" stroke-width="1" stroke-opacity="1"></use></g></g></g></g></svg>