<?xml version="1.0" encoding="UTF-8" standalone="no"?>
<!DOCTYPE svg PUBLIC "-//W3C//DTD SVG 1.1//EN" "http://www.w3.org/Graphics/SVG/1.1/DTD/svg11.dtd">
<svg version="1.1" xmlns="http://www.w3.org/2000/svg" xmlns:xlink="http://www.w3.org/1999/xlink" preserveAspectRatio="xMidYMid meet" viewBox="0 0 640 640"><defs><path d="M0 0L640 0L640 640L0 640L0 0Z" id="Jp8YhlCe4M"></path><path d="M392.14 362.9C391.1 361.2 416.83 356.54 417.57 352.25C418.31 347.86 414.38 374 416.9 372.38C418.16 371.58 426.1 353.32 434.25 354.57C453.53 357.62 451.53 388.94 440.33 397.18C433.88 401.92 423.5 389.57 425.58 378.56C427.06 370.68 433.44 371.49 436.77 372.74C441.3 374.35 434.77 361.55 426.54 367.73C422.91 370.42 417.57 374.89 417.87 397.18C418.31 427.61 421.43 458.76 424.54 464.48C424.54 464.48 401.7 464.3 401.04 464.39C401.04 464.39 399.26 394.04 400.89 376.77C401.04 374.17 393.77 370.06 392.21 370.51C391.47 370.68 393.25 364.87 392.14 362.9Z" id="TvS58tV0VP"></path><path d="M416.31 294.79C423.43 297.92 429.58 296.49 433.14 283.96C433.44 281.36 440.93 267.31 423.43 251.38C417.72 246.19 400.96 233.48 381.91 246.81C367.3 257.02 352.03 269.9 341.13 327.28C338.08 326.74 322.83 324.05 295.39 319.22L291.53 341.15C320.8 340.56 337.06 340.23 340.32 340.16C336.31 381.34 335.79 423.94 337.13 464.39C340.09 464.39 363.75 464.39 366.71 464.39C358.11 433.43 356.4 386.17 358.33 336.94C361.4 337.25 376.75 338.77 404.37 341.51L408.38 325.66C379.37 326.47 363.26 326.92 360.04 327.01C364.19 303.29 368.86 281.45 375.46 266.32C383.47 251.11 392.81 240.28 406.15 244.84C419.13 248.51 424.02 266.95 419.94 271.43C414.38 277.42 408.38 288.97 416.31 294.79Z" id="TAcZifVRoH"></path><path d="M291.53 357.8C291.53 350.99 275.22 360.93 274.48 352.34C273.96 345.98 284.63 234.37 281.3 228.73C278.04 223.27 265.95 206.27 261.95 221.84C251.72 261.76 137.39 473.61 131.09 446.31C134.05 461.26 141.02 466.09 148.14 460.81C152.97 454.63 191.65 405.15 196.48 398.97C201.67 392.79 223.62 383.57 250.53 379.72C250.38 417.58 260.83 442.56 276.7 460.72C283.89 458.31 288.34 451.6 291.46 442.91C280.85 420.63 273.81 397.54 274.48 372.92C283.6 364.87 291.53 364.6 291.53 357.8ZM211.38 363.34C208.34 357.8 250.31 293.71 255.87 283.6C256.02 282.88 256.16 282.43 256.31 282.34C256.61 282.08 256.46 282.52 255.87 283.6C253.72 293.17 249.34 354.31 251.94 363.08C253.12 367.19 214.35 368.8 211.38 363.34Z" id="zASq7kVFAZ"></path><path d="M235.85 216.59C241.04 212.83 243.19 218.47 235.85 225.72C228.51 232.96 161.11 244.24 153.03 249.34C141.1 256.86 107.88 451.8 106.32 456.63C103.28 466.39 79.93 463.53 78.59 456.63C77.93 453.05 133.61 265.28 124.34 255.97C118.19 249.7 76.89 265.1 70.14 263.22C63.4 261.25 63.17 234.22 69.47 237.89C74.74 241.02 227.99 222.22 235.85 216.59Z" id="egpQHiTBns"></path><path d="M568.3 406.66C568.08 405.14 565.34 390.73 557.4 386.35C550.51 382.59 529.23 377.67 515.81 388.58C502.39 399.59 508.1 447.39 508.1 447.48C508.1 447.48 508.25 457.5 524.48 463.68C540.72 469.85 560.74 466.45 563.41 459.38C565.93 452.76 560.81 450.16 558.96 450.43C556.44 450.79 544.5 454.01 543.39 454.19C542.5 454.37 529.45 456.61 530.93 446.94C530.86 447.12 560.07 448.73 565.11 443.36C570.3 437.81 568.6 409.35 568.3 406.66ZM533.38 395.66C534.64 394.49 543.02 388.23 545.69 403.08C548.36 417.94 543.76 435.75 543.76 435.75C542.79 435.69 537.95 435.4 529.23 434.86C531.16 409.5 532.54 396.43 533.38 395.66Z" id="qCWpT4S0Vt"></path><path d="M504.69 406.66C504.47 405.14 501.72 390.73 493.79 386.35C486.89 382.59 465.61 377.67 452.2 388.58C438.78 399.59 444.48 447.39 444.48 447.48C444.48 447.48 444.63 457.5 460.87 463.68C477.11 469.85 497.13 466.45 499.79 459.38C502.32 452.76 497.2 450.16 495.35 450.43C492.82 450.79 480.89 454.01 479.78 454.19C478.89 454.37 465.84 456.61 467.32 446.94C467.32 447.12 496.53 448.73 501.5 443.36C506.69 437.81 504.98 409.35 504.69 406.66ZM469.84 395.66C471.1 394.49 479.48 388.23 482.15 403.08C484.82 417.94 480.22 435.75 480.22 435.75C479.25 435.69 474.41 435.4 465.69 434.86C467.62 409.5 469 396.43 469.84 395.66Z" id="dijRePZN66"></path><path d="M452.34 256.03C456.42 254.87 464.21 252.18 469.4 248.6C474.59 244.93 476.96 240.28 476.14 232.31C475.33 224.35 467.32 219.07 462.65 221.3C457.98 223.54 454.42 230.25 453.23 234.55C452.12 238.85 451.97 244.57 450.49 248.96C449.08 253.26 443.22 261.22 443.22 261.22C445.05 260.18 448.27 257.19 452.34 256.03Z" id="uC7Wk3lZDR"></path><path d="M430.69 232.31C428.84 230.43 425.43 226.58 423.58 223.09C421.72 219.6 421.5 216.47 423.65 212.62C425.8 208.77 431.06 208.59 432.92 211.28C434.85 213.96 435.22 218.44 434.85 221.03C434.48 223.63 433.29 226.58 433.14 229.27C432.92 231.95 434.25 237.86 434.25 237.86C433.54 236.75 432.55 234.19 430.69 232.31Z" id="CfnYvfJfRb"></path></defs><g visibility="inherit"><g visibility="inherit"><g><use xlink:href="#Jp8YhlCe4M" opacity="1" fill="#2185c4" fill-opacity="1"></use></g><g><use xlink:href="#TvS58tV0VP" opacity="1" fill="#fff6e5" fill-opacity="1"></use><g><use xlink:href="#TvS58tV0VP" opacity="1" fill-opacity="0" stroke="#000000" stroke-width="1" stroke-opacity="1"></use></g></g><g><use xlink:href="#TAcZifVRoH" opacity="1" fill="#fff6e5" fill-opacity="1"></use><g><use xlink:href="#TAcZifVRoH" opacity="1" fill-opacity="0" stroke="#000000" stroke-width="1" stroke-opacity="1"></use></g></g><g><use xlink:href="#zASq7kVFAZ" opacity="1" fill="#fff6e5" fill-opacity="1"></use><g><use xlink:href="#zASq7kVFAZ" opacity="1" fill-opacity="0" stroke="#000000" stroke-width="1" stroke-opacity="1"></use></g></g><g><use xlink:href="#egpQHiTBns" opacity="1" fill="#fff6e5" fill-opacity="1"></use><g><use xlink:href="#egpQHiTBns" opacity="1" fill-opacity="0" stroke="#000000" stroke-width="1" stroke-opacity="1"></use></g></g><g><use xlink:href="#qCWpT4S0Vt" opacity="1" fill="#fff6e5" fill-opacity="1"></use><g><use xlink:href="#qCWpT4S0Vt" opacity="1" fill-opacity="0" stroke="#000000" stroke-width="1" stroke-opacity="1"></use></g></g><g><use xlink:href="#dijRePZN66" opacity="1" fill="#fff6e5" fill-opacity="1"></use><g><use xlink:href="#dijRePZN66" opacity="1" fill-opacity="0" stroke="#000000" stroke-width="1" stroke-opacity="1"></use></g></g><g><use xlink:href="#uC7Wk3lZDR" opacity="1" fill="#fff6e5" fill-opacity="1"></use><g><use xlink:href="#uC7Wk3lZDR" opacity="1" fill-opacity="0" stroke="#000000" stroke-width="1" stroke-opacity="1"></use></g></g><g><use xlink:href="#CfnYvfJfRb" opacity="1" fill="#fff6e5" fill-opacity="1"></use><g><use xlink:href="#CfnYvfJfRb" opacity="1" fill-opacity="0" stroke="#000000" stroke-width="1" stroke-opacity="1"></use></g></g></g></g></svg>