<?xml version="1.0" encoding="UTF-8" standalone="no"?>
<!DOCTYPE svg PUBLIC "-//W3C//DTD SVG 1.1//EN" "http://www.w3.org/Graphics/SVG/1.1/DTD/svg11.dtd">
<svg version="1.1" xmlns="http://www.w3.org/2000/svg" xmlns:xlink="http://www.w3.org/1999/xlink" preserveAspectRatio="xMidYMid meet" viewBox="0 0 673 400"><defs><path d="M431.05 224C429.74 221.95 462.05 216.32 462.99 211.13C463.92 205.83 458.98 237.41 462.15 235.47C463.73 234.49 473.69 212.43 483.94 213.94C508.15 217.62 505.63 255.47 491.57 265.42C483.47 271.16 470.43 256.23 473.04 242.93C474.9 233.41 482.91 234.39 487.1 235.9C492.78 237.85 484.59 222.38 474.25 229.84C469.69 233.09 462.99 238.49 463.36 265.42C463.92 302.2 467.83 339.83 471.74 346.75C471.74 346.75 443.06 346.54 442.22 346.65C442.22 346.65 439.99 261.64 442.03 240.77C442.22 237.63 433.1 232.65 431.14 233.2C430.21 233.41 432.44 226.38 431.05 224Z" id="JjjPOIv9Vm"></path><path d="M461.4 141.7C470.34 145.48 478.07 143.75 482.54 128.61C482.91 125.48 492.32 108.5 470.34 89.25C463.17 82.97 442.13 67.62 418.2 83.73C399.85 96.06 380.67 111.63 366.98 180.96C363.15 180.31 344 177.06 309.53 171.22L304.69 197.72C341.45 197.01 361.88 196.61 365.96 196.53C360.93 246.28 360.28 297.76 361.96 346.65C365.67 346.65 395.39 346.65 399.11 346.65C388.31 309.23 386.17 252.12 388.59 192.64C392.44 193.01 411.72 194.84 446.41 198.15L451.44 179.01C415.01 179.98 394.78 180.53 390.73 180.63C395.94 151.97 401.81 125.58 410.1 107.31C420.15 88.92 431.88 75.83 448.65 81.35C464.94 85.78 471.09 108.06 465.96 113.47C458.98 120.72 451.44 134.67 461.4 141.7Z" id="wiGQsl75XY"></path><path d="M304.69 217.84C304.69 209.62 284.21 221.62 283.27 211.24C282.62 203.56 296.03 68.7 291.84 61.88C287.74 55.29 272.57 34.74 267.54 53.56C254.69 101.79 111.1 357.79 103.19 324.8C106.91 342.86 115.67 348.7 124.61 342.32C130.68 334.85 179.25 275.06 185.32 267.59C191.84 260.13 219.4 248.99 253.2 244.34C253.01 290.08 266.14 320.26 286.07 342.21C295.1 339.29 300.69 331.18 304.6 320.69C291.28 293.76 282.44 265.86 283.27 236.12C294.73 226.38 304.69 226.06 304.69 217.84ZM204.03 224.54C200.22 217.84 252.92 140.4 259.9 128.18C260.09 127.31 260.27 126.77 260.46 126.67C260.83 126.34 260.65 126.88 259.9 128.18C257.2 139.75 251.71 213.62 254.97 224.22C256.46 229.19 207.76 231.14 204.03 224.54Z" id="f75z5DNHuV"></path><path d="M234.76 47.21C241.28 42.66 243.98 49.48 234.76 58.24C225.54 67 140.9 80.63 130.75 86.79C115.76 95.87 74.05 331.43 72.09 337.27C68.27 349.06 38.94 345.6 37.26 337.27C36.43 332.94 106.36 106.04 94.72 94.79C86.99 87.22 35.12 105.82 26.65 103.55C18.18 101.17 17.9 68.51 25.81 72.95C32.42 76.73 224.89 54.02 234.76 47.21Z" id="KE0z32qz0B"></path><path d="M652.29 276.89C652.01 275.05 648.56 257.64 638.6 252.34C629.94 247.8 603.22 241.85 586.36 255.04C569.51 268.34 576.68 326.1 576.68 326.21C576.68 326.21 576.86 338.32 597.26 345.78C617.65 353.24 642.79 349.13 646.14 340.59C649.31 332.59 642.88 329.45 640.55 329.77C637.39 330.21 622.4 334.1 621 334.32C619.88 334.53 603.5 337.24 605.36 325.56C605.26 325.77 641.95 327.72 648.28 321.23C654.8 314.53 652.66 280.13 652.29 276.89ZM608.43 263.59C610.01 262.18 620.54 254.61 623.89 272.56C627.24 290.52 621.47 312.04 621.47 312.04C620.25 311.97 614.17 311.61 603.22 310.96C605.64 280.31 607.38 264.52 608.43 263.59Z" id="CqTOfwyA2k"></path><path d="M572.39 276.89C572.12 275.05 568.67 257.64 558.71 252.34C550.05 247.8 523.32 241.85 506.47 255.04C489.62 268.34 496.79 326.1 496.79 326.21C496.79 326.21 496.97 338.32 517.36 345.78C537.76 353.24 562.9 349.13 566.25 340.59C569.42 332.59 562.99 329.45 560.66 329.77C557.5 330.21 542.51 334.1 541.11 334.32C539.99 334.53 523.6 337.24 525.47 325.56C525.47 325.77 562.15 327.72 568.39 321.23C574.91 314.53 572.77 280.13 572.39 276.89ZM528.63 263.59C530.21 262.18 540.74 254.61 544.09 272.56C547.44 290.52 541.67 312.04 541.67 312.04C540.45 311.97 534.37 311.61 523.42 310.96C525.84 280.31 527.58 264.52 528.63 263.59Z" id="eb4axaGMLV"></path><path d="M506.66 94.87C511.78 93.46 521.55 90.22 528.07 85.89C534.59 81.46 537.57 75.83 536.55 66.21C535.52 56.58 525.47 50.2 519.6 52.91C513.73 55.61 509.26 63.72 507.77 68.91C506.38 74.1 506.19 81.03 504.33 86.33C502.56 91.52 495.2 101.14 495.2 101.14C497.49 99.89 501.53 96.28 506.66 94.87Z" id="Djxg6gaA7S"></path><path d="M479.47 66.21C477.14 63.94 472.86 59.29 470.53 55.07C468.2 50.85 467.92 47.07 470.62 42.42C473.32 37.77 479.93 37.55 482.26 40.79C484.68 44.04 485.15 49.45 484.68 52.58C484.22 55.72 482.73 59.29 482.54 62.53C482.26 65.78 483.94 72.91 483.94 72.91C483.04 71.57 481.79 68.48 479.47 66.21Z" id="PCAZQOmQRH"></path></defs><g visibility="inherit"><g visibility="inherit"><g><use xlink:href="#JjjPOIv9Vm" opacity="1" fill="#fff6e5" fill-opacity="1"></use><g><use xlink:href="#JjjPOIv9Vm" opacity="1" fill-opacity="0" stroke="#000000" stroke-width="1" stroke-opacity="1"></use></g></g><g><use xlink:href="#wiGQsl75XY" opacity="1" fill="#fff6e5" fill-opacity="1"></use><g><use xlink:href="#wiGQsl75XY" opacity="1" fill-opacity="0" stroke="#000000" stroke-width="1" stroke-opacity="1"></use></g></g><g><use xlink:href="#f75z5DNHuV" opacity="1" fill="#fff6e5" fill-opacity="1"></use><g><use xlink:href="#f75z5DNHuV" opacity="1" fill-opacity="0" stroke="#000000" stroke-width="1" stroke-opacity="1"></use></g></g><g><use xlink:href="#KE0z32qz0B" opacity="1" fill="#fff6e5" fill-opacity="1"></use><g><use xlink:href="#KE0z32qz0B" opacity="1" fill-opacity="0" stroke="#000000" stroke-width="1" stroke-opacity="1"></use></g></g><g><use xlink:href="#CqTOfwyA2k" opacity="1" fill="#fff6e5" fill-opacity="1"></use><g><use xlink:href="#CqTOfwyA2k" opacity="1" fill-opacity="0" stroke="#000000" stroke-width="1" stroke-opacity="1"></use></g></g><g><use xlink:href="#eb4axaGMLV" opacity="1" fill="#fff6e5" fill-opacity="1"></use><g><use xlink:href="#eb4axaGMLV" opacity="1" fill-opacity="0" stroke="#000000" stroke-width="1" stroke-opacity="1"></use></g></g><g><use xlink:href="#Djxg6gaA7S" opacity="1" fill="#fff6e5" fill-opacity="1"></use><g><use xlink:href="#Djxg6gaA7S" opacity="1" fill-opacity="0" stroke="#000000" stroke-width="1" stroke-opacity="1"></use></g></g><g><use xlink:href="#PCAZQOmQRH" opacity="1" fill="#fff6e5" fill-opacity="1"></use><g><use xlink:href="#PCAZQOmQRH" opacity="1" fill-opacity="0" stroke="#000000" stroke-width="1" stroke-opacity="1"></use></g></g></g></g></svg>