<?xml version="1.0" encoding="UTF-8" standalone="no"?>
<!DOCTYPE svg PUBLIC "-//W3C//DTD SVG 1.1//EN" "http://www.w3.org/Graphics/SVG/1.1/DTD/svg11.dtd">
<svg version="1.1" xmlns="http://www.w3.org/2000/svg" xmlns:xlink="http://www.w3.org/1999/xlink" preserveAspectRatio="xMidYMid meet" viewBox="0 0 640 640"><defs><path d="M415.13 330.74C413.82 328.68 446.14 323.06 447.07 317.87C448 312.57 443.06 344.15 446.23 342.2C447.81 341.23 457.77 319.17 468.02 320.68C492.23 324.36 489.71 362.21 475.65 372.16C467.55 377.89 454.52 362.97 457.12 349.67C458.99 340.15 466.99 341.12 471.18 342.64C476.86 344.58 468.67 329.12 458.33 336.58C453.77 339.82 447.07 345.23 447.44 372.16C448 408.93 451.91 446.57 455.82 453.49C455.82 453.49 427.14 453.27 426.3 453.38C426.3 453.38 424.07 368.38 426.12 347.5C426.3 344.37 417.18 339.39 415.22 339.93C414.29 340.15 416.53 333.12 415.13 330.74Z" id="rjTHnmzmHe"></path><path d="M445.48 248.44C454.42 252.22 462.15 250.49 466.62 235.35C466.99 232.21 476.4 215.23 454.42 195.98C447.25 189.71 426.21 174.35 402.28 190.47C383.93 202.8 364.75 218.37 351.07 287.69C347.24 287.05 328.08 283.8 293.61 277.96L288.77 304.46C325.53 303.74 345.96 303.35 350.04 303.27C345.01 353.02 344.36 404.5 346.04 453.38C349.75 453.38 379.47 453.38 383.19 453.38C372.39 415.96 370.25 358.86 372.67 299.37C376.52 299.74 395.8 301.58 430.49 304.89L435.52 285.75C399.09 286.72 378.86 287.26 374.81 287.37C380.02 258.71 385.89 232.32 394.18 214.04C404.23 195.66 415.97 182.57 432.73 188.09C449.02 192.52 455.17 214.8 450.05 220.21C443.06 227.45 435.52 241.41 445.48 248.44Z" id="Nx87D6D0u9"></path><path d="M288.77 324.57C288.77 316.35 268.29 328.36 267.36 317.98C266.7 310.3 280.11 175.43 275.92 168.62C271.82 162.02 256.65 141.47 251.62 160.29C238.77 208.53 95.19 464.52 87.27 431.54C91 449.6 99.75 455.44 108.69 449.06C114.76 441.58 163.33 381.8 169.4 374.32C175.92 366.86 203.48 355.72 237.28 351.07C237.09 396.82 250.22 426.99 270.15 448.95C279.18 446.03 284.77 437.92 288.68 427.43C275.36 400.5 266.52 372.59 267.36 342.85C278.81 333.12 288.77 332.79 288.77 324.57ZM188.11 331.28C184.3 324.57 237 247.14 243.98 234.92C244.17 234.05 244.36 233.51 244.54 233.4C244.91 233.08 244.73 233.62 243.98 234.92C241.28 246.49 235.79 320.36 239.05 330.95C240.54 335.93 191.84 337.88 188.11 331.28Z" id="f6tt9lx0tF"></path><path d="M218.84 153.94C225.36 149.4 228.06 156.21 218.84 164.97C209.62 173.73 124.98 187.36 114.83 193.53C99.84 202.61 58.13 438.16 56.17 444.01C52.35 455.79 23.02 452.33 21.35 444.01C20.51 439.68 90.44 212.78 78.8 201.53C71.07 193.96 19.2 212.56 10.73 210.29C2.26 207.91 1.98 175.25 9.89 179.68C16.5 183.47 208.97 160.76 218.84 153.94Z" id="G7Rsjavybj"></path><path d="M636.37 383.62C636.09 381.79 632.64 364.37 622.68 359.07C614.02 354.53 587.3 348.58 570.44 361.78C553.59 375.08 560.76 432.83 560.76 432.94C560.76 432.94 560.95 445.06 581.34 452.52C601.73 459.98 626.87 455.87 630.22 447.33C633.39 439.32 626.96 436.19 624.64 436.51C621.47 436.94 606.48 440.84 605.08 441.05C603.96 441.27 587.58 443.97 589.44 432.29C589.35 432.51 626.03 434.46 632.36 427.97C638.88 421.26 636.74 386.87 636.37 383.62ZM592.51 370.32C594.09 368.92 604.62 361.35 607.97 379.3C611.32 397.25 605.55 418.77 605.55 418.77C604.33 418.7 598.25 418.34 587.3 417.69C589.72 387.05 591.46 371.26 592.51 370.32Z" id="pcLeNuE78p"></path><path d="M556.48 383.62C556.2 381.79 552.75 364.37 542.79 359.07C534.13 354.53 507.4 348.58 490.55 361.78C473.7 375.08 480.87 432.83 480.87 432.94C480.87 432.94 481.05 445.06 501.45 452.52C521.84 459.98 546.98 455.87 550.33 447.33C553.5 439.32 547.07 436.19 544.74 436.51C541.58 436.94 526.59 440.84 525.19 441.05C524.07 441.27 507.68 443.97 509.55 432.29C509.55 432.51 546.23 434.46 552.47 427.97C558.99 421.26 556.85 386.87 556.48 383.62ZM512.71 370.32C514.3 368.92 524.82 361.35 528.17 379.3C531.52 397.25 525.75 418.77 525.75 418.77C524.53 418.7 518.45 418.34 507.5 417.69C509.92 387.05 511.66 371.26 512.71 370.32Z" id="Y2qive9ij3"></path><path d="M490.74 201.61C495.86 200.2 505.64 196.96 512.15 192.63C518.67 188.19 521.65 182.57 520.63 172.95C519.6 163.32 509.55 156.94 503.68 159.64C497.81 162.35 493.34 170.46 491.85 175.65C490.46 180.84 490.27 187.76 488.41 193.06C486.64 198.25 479.28 207.88 479.28 207.88C481.57 206.62 485.62 203.01 490.74 201.61Z" id="H8nzySLUXl"></path><path d="M463.55 172.95C461.22 170.67 456.94 166.02 454.61 161.81C452.28 157.59 452 153.8 454.7 149.15C457.4 144.5 464.01 144.29 466.34 147.53C468.76 150.77 469.23 156.18 468.76 159.32C468.3 162.45 466.81 166.02 466.62 169.27C466.34 172.51 468.02 179.65 468.02 179.65C467.12 178.31 465.88 175.22 463.55 172.95Z" id="H2jF91KA9J"></path></defs><g visibility="inherit"><g visibility="inherit"><g><use xlink:href="#rjTHnmzmHe" opacity="1" fill="#fff6e5" fill-opacity="1"></use><g><use xlink:href="#rjTHnmzmHe" opacity="1" fill-opacity="0" stroke="#000000" stroke-width="1" stroke-opacity="1"></use></g></g><g><use xlink:href="#Nx87D6D0u9" opacity="1" fill="#fff6e5" fill-opacity="1"></use><g><use xlink:href="#Nx87D6D0u9" opacity="1" fill-opacity="0" stroke="#000000" stroke-width="1" stroke-opacity="1"></use></g></g><g><use xlink:href="#f6tt9lx0tF" opacity="1" fill="#fff6e5" fill-opacity="1"></use><g><use xlink:href="#f6tt9lx0tF" opacity="1" fill-opacity="0" stroke="#000000" stroke-width="1" stroke-opacity="1"></use></g></g><g><use xlink:href="#G7Rsjavybj" opacity="1" fill="#fff6e5" fill-opacity="1"></use><g><use xlink:href="#G7Rsjavybj" opacity="1" fill-opacity="0" stroke="#000000" stroke-width="1" stroke-opacity="1"></use></g></g><g><use xlink:href="#pcLeNuE78p" opacity="1" fill="#fff6e5" fill-opacity="1"></use><g><use xlink:href="#pcLeNuE78p" opacity="1" fill-opacity="0" stroke="#000000" stroke-width="1" stroke-opacity="1"></use></g></g><g><use xlink:href="#Y2qive9ij3" opacity="1" fill="#fff6e5" fill-opacity="1"></use><g><use xlink:href="#Y2qive9ij3" opacity="1" fill-opacity="0" stroke="#000000" stroke-width="1" stroke-opacity="1"></use></g></g><g><use xlink:href="#H8nzySLUXl" opacity="1" fill="#fff6e5" fill-opacity="1"></use><g><use xlink:href="#H8nzySLUXl" opacity="1" fill-opacity="0" stroke="#000000" stroke-width="1" stroke-opacity="1"></use></g></g><g><use xlink:href="#H2jF91KA9J" opacity="1" fill="#fff6e5" fill-opacity="1"></use><g><use xlink:href="#H2jF91KA9J" opacity="1" fill-opacity="0" stroke="#000000" stroke-width="1" stroke-opacity="1"></use></g></g></g></g></svg>