<?xml version="1.0" encoding="UTF-8" standalone="no"?>
<!DOCTYPE svg PUBLIC "-//W3C//DTD SVG 1.1//EN" "http://www.w3.org/Graphics/SVG/1.1/DTD/svg11.dtd">
<svg version="1.1" xmlns="http://www.w3.org/2000/svg" xmlns:xlink="http://www.w3.org/1999/xlink" preserveAspectRatio="xMidYMid meet" viewBox="0 0 673 400"><defs><path d="M435.91 237.62C434.54 235.03 468.51 227.95 469.49 221.41C470.47 214.73 465.28 254.52 468.61 252.06C470.28 250.84 480.75 223.04 491.52 224.95C516.98 229.58 514.33 277.27 499.55 289.8C491.03 297.02 477.33 278.22 480.07 261.46C482.02 249.47 490.44 250.7 494.85 252.61C500.82 255.06 492.21 235.58 481.34 244.98C476.54 249.07 469.49 255.88 469.88 289.8C470.47 336.12 474.58 383.54 478.7 392.26C478.7 392.26 448.54 391.98 447.66 392.12C447.66 392.12 445.31 285.03 447.46 258.74C447.66 254.79 438.07 248.52 436.01 249.2C435.03 249.47 437.38 240.62 435.91 237.62Z" id="UvEuNR1vmV"></path><path d="M467.83 133.94C477.23 138.71 485.35 136.53 490.05 117.46C490.44 113.5 500.33 92.11 477.23 67.86C469.69 59.96 447.56 40.62 422.4 60.92C403.11 76.45 382.94 96.07 368.55 183.4C364.53 182.58 344.39 178.49 308.14 171.14L303.05 204.51C341.71 203.62 363.18 203.12 367.48 203.02C362.19 265.69 361.5 330.54 363.27 392.12C367.17 392.12 398.42 392.12 402.33 392.12C390.97 344.98 388.72 273.04 391.27 198.11C395.32 198.57 415.59 200.89 452.07 205.06L457.35 180.94C419.05 182.17 397.77 182.85 393.52 182.99C399 146.88 405.17 113.64 413.88 90.62C424.46 67.46 436.79 50.97 454.42 57.92C471.55 63.5 478.01 91.57 472.63 98.38C465.28 107.51 457.35 125.09 467.83 133.94Z" id="ahYLHnfCoY"></path><path d="M303.05 229.86C303.05 219.5 281.51 234.62 280.54 221.55C279.85 211.87 293.95 41.98 289.54 33.39C285.23 25.08 269.28 -0.8 263.99 22.9C250.48 83.67 99.51 406.15 91.19 364.6C95.1 387.35 104.31 394.71 113.71 386.67C120.09 377.26 171.16 301.94 177.54 292.53C184.39 283.13 213.37 269.09 248.91 263.24C248.72 320.87 262.52 358.88 283.47 386.53C292.97 382.86 298.84 372.64 302.96 359.42C288.96 325.5 279.65 290.35 280.54 252.88C292.58 240.62 303.05 240.21 303.05 229.86ZM197.22 238.3C193.2 229.86 248.62 132.31 255.96 116.91C256.16 115.82 256.35 115.14 256.55 115C256.94 114.59 256.74 115.28 255.96 116.91C253.12 131.49 247.35 224.54 250.77 237.89C252.34 244.16 201.13 246.61 197.22 238.3Z" id="HrCmHN0up"></path><path d="M229.53 14.91C236.38 9.18 239.22 17.77 229.53 28.8C219.83 39.84 130.84 57 120.17 64.77C104.4 76.21 60.54 372.95 58.49 380.31C54.47 395.16 23.63 390.8 21.87 380.31C20.99 374.86 94.52 89.02 82.28 74.85C74.15 65.32 19.62 88.75 10.71 85.89C1.8 82.89 1.51 41.75 9.83 47.33C16.78 52.1 219.15 23.49 229.53 14.91Z" id="DsfsWFXcvC"></path><path d="M668.53 304.24C668.24 301.93 664.62 279.99 654.14 273.32C645.04 267.59 616.94 260.1 599.22 276.72C581.5 293.48 589.03 366.23 589.03 366.37C589.03 366.37 589.23 381.63 610.67 391.03C632.11 400.43 658.55 395.25 662.07 384.49C665.4 374.41 658.65 370.46 656.2 370.87C652.87 371.41 637.11 376.32 635.64 376.59C634.46 376.86 617.23 380.27 619.19 365.55C619.09 365.83 657.67 368.28 664.32 360.1C671.18 351.66 668.93 308.33 668.53 304.24ZM622.42 287.49C624.08 285.72 635.15 276.18 638.67 298.79C642.2 321.41 636.13 348.52 636.13 348.52C634.85 348.43 628.45 347.98 616.94 347.16C619.48 308.56 621.31 288.67 622.42 287.49Z" id="bAAmTNUqvH"></path><path d="M584.53 304.24C584.24 301.93 580.62 279.99 570.14 273.32C561.03 267.59 532.94 260.1 515.21 276.72C497.49 293.48 505.03 366.23 505.03 366.37C505.03 366.37 505.23 381.63 526.67 391.03C548.11 400.43 574.54 395.25 578.07 384.49C581.4 374.41 574.64 370.46 572.2 370.87C568.87 371.41 553.1 376.32 551.64 376.59C550.46 376.86 533.23 380.27 535.19 365.55C535.19 365.83 573.76 368.28 580.32 360.1C587.17 351.66 584.92 308.33 584.53 304.24ZM538.52 287.49C540.18 285.72 551.24 276.18 554.77 298.79C558.29 321.41 552.22 348.52 552.22 348.52C550.94 348.43 544.55 347.98 533.03 347.16C535.58 308.56 537.41 288.67 538.52 287.49Z" id="uDDV1bPFxB"></path><path d="M515.41 74.95C520.79 73.18 531.07 69.09 537.93 63.64C544.78 58.05 547.91 50.97 546.84 38.84C545.76 26.72 535.19 18.68 529.02 22.09C522.85 25.49 518.15 35.71 516.58 42.25C515.12 48.79 514.92 57.51 512.96 64.19C511.1 70.72 503.37 82.85 503.37 82.85C505.78 81.27 510.03 76.72 515.41 74.95Z" id="Mwyr4VpuIv"></path><path d="M486.82 38.84C484.37 35.98 479.87 30.12 477.42 24.81C474.98 19.5 474.68 14.73 477.52 8.87C480.36 3.01 487.31 2.74 489.76 6.83C492.3 10.91 492.79 17.73 492.3 21.68C491.81 25.63 490.25 30.12 490.05 34.21C489.76 38.3 491.52 47.29 491.52 47.29C490.58 45.6 489.27 41.71 486.82 38.84Z" id="ByPYxevMI1"></path></defs><g visibility="inherit"><g visibility="inherit"><g><use xlink:href="#UvEuNR1vmV" opacity="1" fill="#fff6e5" fill-opacity="1"></use><g><use xlink:href="#UvEuNR1vmV" opacity="1" fill-opacity="0" stroke="#000000" stroke-width="1" stroke-opacity="1"></use></g></g><g><use xlink:href="#ahYLHnfCoY" opacity="1" fill="#fff6e5" fill-opacity="1"></use><g><use xlink:href="#ahYLHnfCoY" opacity="1" fill-opacity="0" stroke="#000000" stroke-width="1" stroke-opacity="1"></use></g></g><g><use xlink:href="#HrCmHN0up" opacity="1" fill="#fff6e5" fill-opacity="1"></use><g><use xlink:href="#HrCmHN0up" opacity="1" fill-opacity="0" stroke="#000000" stroke-width="1" stroke-opacity="1"></use></g></g><g><use xlink:href="#DsfsWFXcvC" opacity="1" fill="#fff6e5" fill-opacity="1"></use><g><use xlink:href="#DsfsWFXcvC" opacity="1" fill-opacity="0" stroke="#000000" stroke-width="1" stroke-opacity="1"></use></g></g><g><use xlink:href="#bAAmTNUqvH" opacity="1" fill="#fff6e5" fill-opacity="1"></use><g><use xlink:href="#bAAmTNUqvH" opacity="1" fill-opacity="0" stroke="#000000" stroke-width="1" stroke-opacity="1"></use></g></g><g><use xlink:href="#uDDV1bPFxB" opacity="1" fill="#fff6e5" fill-opacity="1"></use><g><use xlink:href="#uDDV1bPFxB" opacity="1" fill-opacity="0" stroke="#000000" stroke-width="1" stroke-opacity="1"></use></g></g><g><use xlink:href="#Mwyr4VpuIv" opacity="1" fill="#fff6e5" fill-opacity="1"></use><g><use xlink:href="#Mwyr4VpuIv" opacity="1" fill-opacity="0" stroke="#000000" stroke-width="1" stroke-opacity="1"></use></g></g><g><use xlink:href="#ByPYxevMI1" opacity="1" fill="#fff6e5" fill-opacity="1"></use><g><use xlink:href="#ByPYxevMI1" opacity="1" fill-opacity="0" stroke="#000000" stroke-width="1" stroke-opacity="1"></use></g></g></g></g></svg>