<?xml version="1.0" encoding="UTF-8" standalone="no"?>
<!DOCTYPE svg PUBLIC "-//W3C//DTD SVG 1.1//EN" "http://www.w3.org/Graphics/SVG/1.1/DTD/svg11.dtd">
<svg version="1.1" xmlns="http://www.w3.org/2000/svg" xmlns:xlink="http://www.w3.org/1999/xlink" preserveAspectRatio="xMidYMid meet" viewBox="0 0 640 640"><defs><path d="M408.76 357.23C407.48 355 439.09 348.89 440 343.26C440.91 337.51 436.08 371.79 439.18 369.67C440.73 368.62 450.47 344.67 460.49 346.31C484.17 350.3 481.71 391.39 467.96 402.19C460.04 408.41 447.28 392.21 449.83 377.77C451.66 367.44 459.49 368.5 463.59 370.14C469.14 372.26 461.13 355.47 451.02 363.57C446.56 367.09 440 372.96 440.36 402.19C440.91 442.11 444.73 482.96 448.56 490.48C448.56 490.48 420.51 490.24 419.69 490.36C419.69 490.36 417.5 398.08 419.5 375.43C419.69 372.02 410.76 366.62 408.85 367.21C407.94 367.44 410.12 359.81 408.76 357.23Z" id="ZypWgsxvon"></path><path d="M438.45 267.89C447.19 272 454.75 270.12 459.12 253.68C459.49 250.28 468.69 231.85 447.19 210.95C440.18 204.14 419.6 187.47 396.19 204.96C378.25 218.35 359.48 235.25 346.09 310.5C342.35 309.8 323.62 306.28 289.9 299.94L285.16 328.7C321.12 327.93 341.1 327.5 345.09 327.41C340.17 381.41 339.54 437.29 341.18 490.36C344.81 490.36 373.88 490.36 377.52 490.36C366.95 449.74 364.86 387.75 367.22 323.18C371 323.58 389.85 325.58 423.79 329.17L428.7 308.39C393.07 309.45 373.28 310.03 369.32 310.15C374.42 279.04 380.16 250.4 388.26 230.56C398.1 210.6 409.58 196.39 425.97 202.38C441.91 207.19 447.92 231.38 442.91 237.25C436.08 245.11 428.7 260.26 438.45 267.89Z" id="egRxAAF6NE"></path><path d="M285.16 350.54C285.16 341.61 265.12 354.65 264.21 343.38C263.58 335.04 276.69 188.64 272.59 181.25C268.59 174.09 253.74 151.78 248.82 172.21C236.25 224.57 95.81 502.45 88.07 466.64C91.71 486.25 100.27 492.59 109.01 485.66C114.95 477.55 162.46 412.65 168.4 404.54C174.77 396.44 201.73 384.35 234.79 379.3C234.61 428.96 247.45 461.71 266.95 485.54C275.78 482.38 281.25 473.57 285.07 462.18C272.05 432.95 263.39 402.66 264.21 370.38C275.42 359.81 285.16 359.46 285.16 350.54ZM186.7 357.82C182.97 350.54 234.52 266.48 241.35 253.21C241.53 252.27 241.72 251.69 241.9 251.57C242.26 251.22 242.08 251.8 241.35 253.21C238.71 265.77 233.34 345.96 236.53 357.46C237.98 362.86 190.35 364.98 186.7 357.82Z" id="RaBxttivLx"></path><path d="M216.76 165.32C223.14 160.39 225.78 167.78 216.76 177.29C207.74 186.8 124.95 201.59 115.02 208.28C100.36 218.15 59.56 473.84 57.64 480.18C53.91 492.98 25.22 489.22 23.58 480.18C22.76 475.48 91.16 229.18 79.78 216.97C72.22 208.75 21.49 228.95 13.2 226.48C4.91 223.9 4.64 188.44 12.38 193.26C18.84 197.37 207.11 172.71 216.76 165.32Z" id="UnT7chByUe"></path><path d="M625.16 414.64C624.89 412.64 621.52 393.74 611.77 387.99C603.3 383.06 577.16 376.6 560.68 390.92C544.19 405.36 551.21 468.05 551.21 468.17C551.21 468.17 551.39 481.32 571.33 489.42C591.28 497.52 615.87 493.06 619.15 483.78C622.25 475.1 615.96 471.69 613.69 472.04C610.59 472.51 595.93 476.74 594.56 476.97C593.47 477.21 577.44 480.14 579.26 467.47C579.17 467.7 615.05 469.81 621.25 462.77C627.62 455.49 625.53 418.16 625.16 414.64ZM582.26 400.2C583.81 398.67 594.1 390.45 597.38 409.94C600.66 429.43 595.02 452.79 595.02 452.79C593.83 452.71 587.87 452.32 577.16 451.62C579.53 418.35 581.23 401.21 582.26 400.2Z" id="TzRYJ3zamD"></path><path d="M547.02 414.64C546.74 412.64 543.37 393.74 533.63 387.99C525.16 383.06 499.02 376.6 482.53 390.92C466.05 405.36 473.06 468.05 473.06 468.17C473.06 468.17 473.24 481.32 493.19 489.42C513.13 497.52 537.73 493.06 541.01 483.78C544.1 475.1 537.82 471.69 535.54 472.04C532.44 472.51 517.78 476.74 516.41 476.97C515.32 477.21 499.29 480.14 501.11 467.47C501.11 467.7 537 469.81 543.1 462.77C549.48 455.49 547.38 418.16 547.02 414.64ZM504.21 400.2C505.76 398.67 516.05 390.45 519.33 409.94C522.61 429.43 516.96 452.79 516.96 452.79C515.77 452.71 509.82 452.32 499.11 451.62C501.48 418.35 503.18 401.21 504.21 400.2Z" id="GbUZEHzvlx"></path><path d="M482.71 217.05C487.72 215.53 497.29 212.01 503.66 207.31C510.04 202.5 512.95 196.39 511.95 185.94C510.95 175.5 501.11 168.57 495.37 171.5C489.64 174.44 485.26 183.24 483.81 188.88C482.44 194.51 482.26 202.03 480.44 207.78C478.71 213.42 471.51 223.86 471.51 223.86C473.75 222.5 477.7 218.58 482.71 217.05Z" id="xqR5RyLtU8"></path><path d="M456.12 185.94C453.84 183.48 449.65 178.43 447.38 173.85C445.1 169.27 444.82 165.16 447.47 160.12C450.11 155.07 456.57 154.83 458.85 158.36C461.22 161.88 461.67 167.75 461.22 171.15C460.76 174.56 459.31 178.43 459.12 181.95C458.85 185.47 460.49 193.22 460.49 193.22C459.62 191.77 458.4 188.41 456.12 185.94Z" id="mADRdhbOzD"></path></defs><g visibility="inherit"><g visibility="inherit"><g><use xlink:href="#ZypWgsxvon" opacity="1" fill="#fff6e5" fill-opacity="1"></use><g><use xlink:href="#ZypWgsxvon" opacity="1" fill-opacity="0" stroke="#000000" stroke-width="1" stroke-opacity="1"></use></g></g><g><use xlink:href="#egRxAAF6NE" opacity="1" fill="#fff6e5" fill-opacity="1"></use><g><use xlink:href="#egRxAAF6NE" opacity="1" fill-opacity="0" stroke="#000000" stroke-width="1" stroke-opacity="1"></use></g></g><g><use xlink:href="#RaBxttivLx" opacity="1" fill="#fff6e5" fill-opacity="1"></use><g><use xlink:href="#RaBxttivLx" opacity="1" fill-opacity="0" stroke="#000000" stroke-width="1" stroke-opacity="1"></use></g></g><g><use xlink:href="#UnT7chByUe" opacity="1" fill="#fff6e5" fill-opacity="1"></use><g><use xlink:href="#UnT7chByUe" opacity="1" fill-opacity="0" stroke="#000000" stroke-width="1" stroke-opacity="1"></use></g></g><g><use xlink:href="#TzRYJ3zamD" opacity="1" fill="#fff6e5" fill-opacity="1"></use><g><use xlink:href="#TzRYJ3zamD" opacity="1" fill-opacity="0" stroke="#000000" stroke-width="1" stroke-opacity="1"></use></g></g><g><use xlink:href="#GbUZEHzvlx" opacity="1" fill="#fff6e5" fill-opacity="1"></use><g><use xlink:href="#GbUZEHzvlx" opacity="1" fill-opacity="0" stroke="#000000" stroke-width="1" stroke-opacity="1"></use></g></g><g><use xlink:href="#xqR5RyLtU8" opacity="1" fill="#fff6e5" fill-opacity="1"></use><g><use xlink:href="#xqR5RyLtU8" opacity="1" fill-opacity="0" stroke="#000000" stroke-width="1" stroke-opacity="1"></use></g></g><g><use xlink:href="#mADRdhbOzD" opacity="1" fill="#fff6e5" fill-opacity="1"></use><g><use xlink:href="#mADRdhbOzD" opacity="1" fill-opacity="0" stroke="#000000" stroke-width="1" stroke-opacity="1"></use></g></g></g></g></svg>