<?xml version="1.0" encoding="UTF-8" standalone="no"?>
<!DOCTYPE svg PUBLIC "-//W3C//DTD SVG 1.1//EN" "http://www.w3.org/Graphics/SVG/1.1/DTD/svg11.dtd">
<svg version="1.1" xmlns="http://www.w3.org/2000/svg" xmlns:xlink="http://www.w3.org/1999/xlink" preserveAspectRatio="xMidYMid meet" viewBox="0 0 640 640"><defs><path d="M287.06 331.25C287.88 329.07 291.37 319.94 282.85 322.95C274.5 325.83 207.69 348.94 199.34 351.83C171.13 331.14 131.16 333.54 105.67 359.03C77.53 387.17 77.53 432.95 105.67 461.09C133.81 489.23 179.59 489.23 207.73 461.09C221.67 447.16 228.69 428.91 228.82 410.61C228.82 410.61 250.61 402.07 257.88 399.27C262.81 397.37 263.78 394.22 264.6 391.86C269.27 378.31 282.13 344.38 287.06 331.25ZM133.05 386.41C146.09 373.37 167.31 373.36 180.36 386.41C193.4 399.45 193.4 420.67 180.36 433.72C167.31 446.76 146.09 446.76 133.05 433.72C120.01 420.67 120.01 399.45 133.05 386.41Z" id="qe1hZ74exv"></path><path d="M392.13 322.18C393.21 315.72 397.35 313.97 400.28 313.15C402.7 312.48 548.39 281.17 557.7 279.16C581.54 273.99 586.14 286.2 586.14 286.2C586.14 286.2 424.89 348.04 395.37 359.03C393.44 359.74 386.75 361.47 387.65 353.83C388.79 344.1 391.03 328.77 392.13 322.18Z" id="K3YQ5DtAD9"></path><path d="M267.79 441.85C249.24 441.8 230.67 448.83 216.55 462.95C188.41 491.09 188.41 536.88 216.55 565.02C244.69 593.16 290.47 593.16 318.61 565.02C343.7 539.93 346.4 500.81 326.74 472.68C330.2 463.78 357.91 392.62 361.37 383.72C364.59 375.45 368.23 361.5 369.46 352.71C373.54 328.49 406.16 134.69 410.24 110.47C412.1 88.2 401.19 88.06 401.19 88.06C374.51 158.82 281.13 406.47 267.79 441.85ZM329.46 329.93C334.61 324.78 342.97 324.78 348.13 329.93C353.29 335.09 353.28 343.45 348.13 348.6C342.98 353.76 334.62 353.76 329.46 348.6C324.3 343.45 324.3 335.09 329.46 329.93ZM243.92 490.33C256.96 477.29 278.19 477.29 291.23 490.33C304.27 503.37 304.27 524.6 291.23 537.64C278.19 550.68 256.97 550.68 243.92 537.64C230.88 524.6 230.88 503.37 243.92 490.33Z" id="x5l3qGhGXB"></path></defs><g visibility="visible"><g visibility="visible"><path></path><g><use xlink:href="#qe1hZ74exv" opacity="1" fill="#3196c4" fill-opacity="1"></use><g><use xlink:href="#qe1hZ74exv" opacity="1" fill-opacity="0" stroke="#000000" stroke-width="1" stroke-opacity="0"></use></g></g><g><use xlink:href="#K3YQ5DtAD9" opacity="1" fill="#3196c4" fill-opacity="1"></use><g><use xlink:href="#K3YQ5DtAD9" opacity="1" fill-opacity="0" stroke="#000000" stroke-width="1" stroke-opacity="0"></use></g></g><g><use xlink:href="#x5l3qGhGXB" opacity="1" fill="#3196c4" fill-opacity="1"></use><g><use xlink:href="#x5l3qGhGXB" opacity="1" fill-opacity="0" stroke="#000000" stroke-width="1" stroke-opacity="0"></use></g></g></g></g></svg>