<?xml version="1.0" encoding="UTF-8" standalone="no"?>
<!DOCTYPE svg PUBLIC "-//W3C//DTD SVG 1.1//EN" "http://www.w3.org/Graphics/SVG/1.1/DTD/svg11.dtd">
<svg version="1.1" xmlns="http://www.w3.org/2000/svg" xmlns:xlink="http://www.w3.org/1999/xlink" preserveAspectRatio="xMidYMid meet" viewBox="0 0 640 640"><defs><path d="M259.27 316.66C260.29 313.89 264.66 302.3 254 306.12C243.54 309.78 159.91 339.1 149.46 342.76C114.14 316.52 64.11 319.56 32.21 351.89C-3.02 387.59 -3.01 445.68 32.21 481.38C67.43 517.08 124.74 517.08 159.97 481.38C177.41 463.71 186.2 440.54 186.37 417.33C186.37 417.33 213.63 406.5 222.74 402.94C228.91 400.54 230.13 396.55 231.14 393.55C237 376.35 253.1 333.3 259.27 316.66ZM66.48 386.63C82.81 370.08 109.37 370.08 125.7 386.63C142.03 403.18 142.02 430.1 125.7 446.65C109.37 463.19 82.81 463.19 66.48 446.65C50.15 430.1 50.15 403.18 66.48 386.63Z" id="vgJsOyEglO"></path><path d="M390.79 305.15C392.14 296.95 397.32 294.73 400.99 293.7C404.01 292.85 586.39 253.12 598.03 250.57C627.88 244.01 633.64 259.5 633.64 259.5C633.64 259.5 431.79 337.95 394.84 351.89C392.43 352.8 384.05 354.99 385.17 345.3C386.6 332.96 389.41 313.51 390.79 305.15Z" id="TcvNEKktE7"></path><path d="M235.14 456.97C211.92 456.9 188.68 465.82 171 483.74C135.77 519.44 135.77 577.52 171 613.22C206.22 648.92 263.53 648.93 298.76 613.23C330.17 581.39 333.54 531.77 308.93 496.08C313.27 484.79 347.95 394.51 352.29 383.22C356.31 372.73 360.87 355.03 362.41 343.88C367.51 313.15 408.35 67.29 413.45 36.55C415.79 8.31 402.12 8.12 402.12 8.12C368.73 97.89 251.84 412.09 235.14 456.97ZM312.34 314.98C318.79 308.44 329.25 308.44 335.71 314.98C342.16 321.52 342.16 332.13 335.71 338.67C329.26 345.21 318.79 345.21 312.34 338.67C305.88 332.13 305.88 321.52 312.34 314.98ZM205.27 518.47C221.59 501.93 248.16 501.93 264.49 518.47C280.81 535.02 280.81 561.94 264.48 578.49C248.16 595.04 221.59 595.04 205.27 578.49C188.94 561.94 188.94 535.02 205.27 518.47Z" id="vaDLnOiBJp"></path></defs><g visibility="visible"><g visibility="visible"><path></path><g><use xlink:href="#vgJsOyEglO" opacity="1" fill="#3196c4" fill-opacity="1"></use><g><use xlink:href="#vgJsOyEglO" opacity="1" fill-opacity="0" stroke="#000000" stroke-width="1" stroke-opacity="0"></use></g></g><g><use xlink:href="#TcvNEKktE7" opacity="1" fill="#3196c4" fill-opacity="1"></use><g><use xlink:href="#TcvNEKktE7" opacity="1" fill-opacity="0" stroke="#000000" stroke-width="1" stroke-opacity="0"></use></g></g><g><use xlink:href="#vaDLnOiBJp" opacity="1" fill="#3196c4" fill-opacity="1"></use><g><use xlink:href="#vaDLnOiBJp" opacity="1" fill-opacity="0" stroke="#000000" stroke-width="1" stroke-opacity="0"></use></g></g></g></g></svg>